<?xml version="1.0"?>
<svg version="1.1" xmlns="http://www.w3.org/2000/svg" width="400" height="200" style="border: dashed 2px #aaa"><path fill="#512bd4" d="M28.8,108.7l13.8,0l0,4.8l-13.8,0l0,14.1l6,1.2l0,3.6l-17.4,0l0-3.6l5.1-1.2l0-32.4l-5.1-1.2l0-3.3l11.4-0.3l18.3,0l0,9.9l-3.9,0l-1.5-5.1l-12.9,0l0,13.5z M71.016,100c9,0,14.1,6.3,14.1,15.9c0,10.2-6,17.1-15,17.1s-14.4-5.4-14.4-16.2c0-10.2,6.3-16.8,15.3-16.8z M70.716,104.8c-6,0-8.7,3.9-8.7,11.7c0,7.2,2.4,11.7,8.4,11.7s8.4-4.2,8.4-12c0-6.6-2.1-11.4-8.1-11.4z M103.932,100.6l0.54,4.38c1.5-1.68,4.98-4.98,9.06-4.98c3,0,5.4,0.9,5.4,0.9l-0.3,8.7l-3.9,0l-0.9-4.5c-4.5,0-7.38,2.94-8.7,4.68l0,17.82l6,1.5l0,3.3l-17.1,0l0-3.3l5.1-1.5l0-22.2l-5.1-1.2l0-3.3z M145.548,100.9l0,4.5l-8.7,0l0,19.26c0,2.76,1.32,3.66,3,3.66c1.44,0,3.12-0.66,4.68-1.5l1.62,3.18c-2.7,1.98-5.4,3-8.4,3c-3.6,0-6.9-1.98-6.9-8.7l0-18.9l-6,0l0-3.9l6-0.6l0-7.56l6-1.2l0,8.76l8.7,0z M164.064,86.2l0,18.12c1.86-1.56,6.06-4.32,10.5-4.32c6.6,0,9.6,4.2,9.6,10.8l0,16.8l4.5,1.5l0,3.3l-14.4,0l0-3.3l3.9-1.44l0-16.26c0-4.2-1.32-6.3-5.22-6.3c-5.1,0-8.88,4.8-8.88,4.8l0,17.7l3.9,1.5l0,3.3l-15,0l0-3.3l5.1-1.5l0-36.6l-5.1-1.2l0-3.3z M198.48,128.8c0-2.7,1.8-4.2,3.9-4.2c2.4,0,3.9,1.5,3.9,4.2s-1.8,4.2-3.9,4.2c-2.4,0-3.9-1.5-3.9-4.2z M227.196,127.6l5.7,1.2l0,3.6l-16.2,0l0-3.6l5.1-1.2l0-32.4l-5.1-1.2l0-3.3l12.6-0.3l19.8,33.54l0-28.74l-5.1-1.2l0-3.3l15.6-0.3l0,3.6l-5.1,1.2l0,37.2l-7.5,0l-19.8-33.06l0,28.26z M295.212,117.4l-20.7,0c0,6.6,3.54,10.8,8.7,10.8c6,0,10.08-3.3,10.08-3.3l2.1,3.12s-5.58,4.98-12.78,4.98c-9.6,0-14.4-6.3-14.4-16.2c0-9.6,6-16.8,14.7-16.8s12.6,5.1,12.6,14.1c0,1.5-0.3,3.18-0.3,3.3z M274.752,112.9l14.4,0c0-4.5-1.74-8.22-6.54-8.22s-7.5,3.72-7.86,8.22z M324.228,100.9l0,4.5l-8.7,0l0,19.26c0,2.76,1.32,3.66,3,3.66c1.44,0,3.12-0.66,4.68-1.5l1.62,3.18c-2.7,1.98-5.4,3-8.4,3c-3.6,0-6.9-1.98-6.9-8.7l0-18.9l-6,0l0-3.9l6-0.6l0-7.56l6-1.2l0,8.76l8.7,0z"/><path fill="#" d=""/></svg>
