<?xml version="1.0"?>
<svg version="1.1" xmlns="http://www.w3.org/2000/svg" width="400" height="200" style="border: dashed 2px #aaa"><path fill="#512bd4" d="M31.1,110.15l16.1,0l0,5.6l-16.1,0l0,16.45l7,1.4l0,4.2l-20.3,0l0-4.2l5.95-1.4l0-37.8l-5.95-1.4l0-3.85l13.3-0.35l21.35,0l0,11.55l-4.55,0l-1.75-5.95l-15.05,0l0,15.75z M80.352,100c10.5,0,16.45,7.35,16.45,18.55c0,11.9-7,19.95-17.5,19.95s-16.8-6.3-16.8-18.9c0-11.9,7.35-19.6,17.85-19.6z M80.002,105.6c-7,0-10.15,4.55-10.15,13.65c0,8.4,2.8,13.65,9.8,13.65s9.8-4.9,9.8-14c0-7.7-2.45-13.3-9.45-13.3z M118.754,100.7l0.63,5.11c1.75-1.96,5.81-5.81,10.57-5.81c3.5,0,6.3,1.05,6.3,1.05l-0.35,10.15l-4.55,0l-1.05-5.25c-5.25,0-8.61,3.43-10.15,5.46l0,20.79l7,1.75l0,3.85l-19.95,0l0-3.85l5.95-1.75l0-25.9l-5.95-1.4l0-3.85z M167.306,101.05l0,5.25l-10.15,0l0,22.47c0,3.22,1.54,4.27,3.5,4.27c1.68,0,3.64-0.77,5.46-1.75l1.89,3.71c-3.15,2.31-6.3,3.5-9.8,3.5c-4.2,0-8.05-2.31-8.05-10.15l0-22.05l-7,0l0-4.55l7-0.7l0-8.82l7-1.4l0,10.22l10.15,0z M188.908,83.9l0,21.14c2.17-1.82,7.07-5.04,12.25-5.04c7.7,0,11.2,4.9,11.2,12.6l0,19.6l5.25,1.75l0,3.85l-16.8,0l0-3.85l4.55-1.68l0-18.97c0-4.9-1.54-7.35-6.09-7.35c-5.95,0-10.36,5.6-10.36,5.6l0,20.65l4.55,1.75l0,3.85l-17.5,0l0-3.85l5.95-1.75l0-42.7l-5.95-1.4l0-3.85z M229.06,133.6c0-3.15,2.1-4.9,4.55-4.9c2.8,0,4.55,1.75,4.55,4.9s-2.1,4.9-4.55,4.9c-2.8,0-4.55-1.75-4.55-4.9z M262.562,132.2l6.65,1.4l0,4.2l-18.9,0l0-4.2l5.95-1.4l0-37.8l-5.95-1.4l0-3.85l14.7-0.35l23.1,39.13l0-33.53l-5.95-1.4l0-3.85l18.2-0.35l0,4.2l-5.95,1.4l0,43.4l-8.75,0l-23.1-38.57l0,32.97z M341.914,120.3l-24.15,0c0,7.7,4.13,12.6,10.15,12.6c7,0,11.76-3.85,11.76-3.85l2.45,3.64s-6.51,5.81-14.91,5.81c-11.2,0-16.8-7.35-16.8-18.9c0-11.2,7-19.6,17.15-19.6s14.7,5.95,14.7,16.45c0,1.75-0.35,3.71-0.35,3.85z M318.044,115.05l16.8,0c0-5.25-2.03-9.59-7.63-9.59s-8.75,4.34-9.17,9.59z M375.766,101.05l0,5.25l-10.15,0l0,22.47c0,3.22,1.54,4.27,3.5,4.27c1.68,0,3.64-0.77,5.46-1.75l1.89,3.71c-3.15,2.31-6.3,3.5-9.8,3.5c-4.2,0-8.05-2.31-8.05-10.15l0-22.05l-7,0l0-4.55l7-0.7l0-8.82l7-1.4l0,10.22l10.15,0z"/><path fill="#" d=""/></svg>
